<svg xmlns="http://www.w3.org/2000/svg" viewBox="0 0 231.107 231.107">
  <svg xmlns="http://www.w3.org/2000/svg" xmlns:svg="http://www.w3.org/2000/svg" viewBox="0 0 231.107 231.107">
    <path fill="#319B42" d="M231.105 231.107H0V.002h231.105v231.105"/>
    <path fill="#fff" d="m95.859 86.26 51.578 21.71c13.372 5.638 27.333 9.91 33.841 24.423a203589.69 203589.69 0 0 0 15.29 34.128c-2.103-12.61-4.282-24.828-6.363-37.558-2.424-14.794-15.492-22.737-26.312-31.103a474022.493 474022.493 0 0 1-76.005-58.674c2.376 14.485 4.748 28.973 7.123 43.46a29.73 29.73 0 0 0 .848 3.613"/>
    <path fill="#fff" d="M73.997 117.238c19.056 3.05 38.107 6.102 57.167 9.15 14.326 2.304 28.906 3.14 38.673 15.694l23.832 30.652a7470.564 7470.564 0 0 1-16.412-36.574c-5.563-12.493-20.003-17.471-32.772-22.805-29.897-12.46-59.192-24.937-89.07-37.4 6.084 13.439 11.868 26.592 17.953 40.034.197.433.418.835.629 1.249"/>
    <path fill="#fff" d="M191.942 179.776c.035.006.07.01.099.014-8.947-11.22-17.64-22.519-26.535-33.783-8.477-10.738-23.393-11.881-36.975-14.01-31.777-4.956-63.693-10.29-95.457-15.253 9.058 11.358 17.763 22.965 26.824 34.323 1.03 1.292 2.336 2.502 3.531 3.478 9.002 7.346 21.446 8.221 33.255 10.054 4.994.779 10.028 1.661 15.013 2.439 26.772 4.177 53.388 8.545 80.164 12.728.039-.008.077-.01.124-.015-.027-.009-.039-.017-.057-.027.02.01.049.022.076.033a.492.492 0 0 1-.062.02"/>
  </svg>
</svg>
